<svg xmlns="http://www.w3.org/2000/svg" version="1.1" xmlns:xlink="http://www.w3.org/1999/xlink" xmlns:svgjs="http://svgjs.dev/svgjs" width="1000" height="1000" viewBox="0 0 1000 1000"><rect width="1000" height="1000" fill="#000000"></rect><g transform="matrix(0.7,0,0,0.7,149.57575757575756,417.1967050876425)"><svg viewBox="0 0 396 94" data-background-color="#ffffff" preserveAspectRatio="xMidYMid meet" height="237" width="1000" xmlns="http://www.w3.org/2000/svg" xmlns:xlink="http://www.w3.org/1999/xlink"><g id="tight-bounds" transform="matrix(1,0,0,1,0.2400000000000091,-0.08312404001443952)"><svg viewBox="0 0 395.52 94.16624808002886" height="94.16624808002886" width="395.52"><g><svg viewBox="0 0 618.1910154828179 147.18023999999997" height="94.16624808002886" width="395.52"><g><rect width="6.03852190272" height="147.18023999999997" x="200.82484462009785" y="0" fill="#ffffff" opacity="1" stroke-width="0" stroke="transparent" fill-opacity="1" class="rect-o-0" data-fill-palette-color="primary" rx="1%" id="o-0" data-palette-color="#000000"></rect></g><g transform="matrix(1,0,0,1,222.67101548281784,0.3661199999999951)"><svg viewBox="0 0 395.52 146.44799999999998" height="146.44799999999998" width="395.52"><g id="textblocktransform"><svg viewBox="0 0 395.52 146.44799999999998" height="146.44799999999998" width="395.52" id="textblock"><g><svg viewBox="0 0 395.52 146.44799999999998" height="146.44799999999998" width="395.52"><g transform="matrix(1,0,0,1,0,0)"><svg width="395.52" viewBox="2.6399998664855957 -31.610000610351562 189.4300079345703 67.13999938964844" height="146.44799999999998" data-palette-color="#000000"><svg></svg><svg></svg><g class="undefined-text-0" data-fill-palette-color="primary" id="text-0"><path xmlns="http://www.w3.org/2000/svg" d="M7.13-23.45v0c0 0.807 0.267 1.563 0.8 2.27 0.54 0.713 1.23 1.297 2.07 1.75 0.84 0.46 1.797 0.863 2.87 1.21 1.073 0.347 2.203 0.71 3.39 1.09 1.193 0.387 2.363 0.81 3.51 1.27 1.147 0.46 2.143 1.033 2.99 1.72v0c1.84 1.493 2.76 3.523 2.76 6.09v0c0 1.227-0.287 2.387-0.86 3.48-0.58 1.093-1.387 2.003-2.42 2.73v0c-2.107 1.533-4.923 2.3-8.45 2.3v0c-3.333 0-6.263-0.843-8.79-2.53v0c-1.573-0.993-2.36-1.837-2.36-2.53v0c0-0.613 0.307-1.11 0.92-1.49v0c0.153-0.153 0.347-0.23 0.58-0.23 0.227 0 0.477 0.097 0.75 0.29 0.267 0.187 0.58 0.417 0.94 0.69 0.367 0.267 0.827 0.563 1.38 0.89 0.56 0.32 1.147 0.617 1.76 0.89v0c1.527 0.613 3.02 0.9 4.48 0.86 1.453-0.04 2.62-0.157 3.5-0.35 0.887-0.187 1.673-0.51 2.36-0.97v0c1.453-1 2.2-2.267 2.24-3.8v0c0-1.913-0.937-3.387-2.81-4.42v0c-0.847-0.46-1.797-0.873-2.85-1.24-1.053-0.36-2.163-0.713-3.33-1.06-1.173-0.347-2.333-0.767-3.48-1.26-1.147-0.5-2.163-1.097-3.05-1.79v0c-1.873-1.493-2.81-3.407-2.81-5.74v0c0-1.227 0.297-2.377 0.89-3.45 0.593-1.073 1.407-1.957 2.44-2.65v0c1.993-1.413 4.483-2.14 7.47-2.18v0c4.333 0 7.82 1.4 10.46 4.2v0c0.153 0.227 0.23 0.483 0.23 0.77 0 0.287-0.01 0.527-0.03 0.72-0.013 0.193-0.117 0.387-0.31 0.58v0c-0.267 0.34-0.623 0.51-1.07 0.51-0.44 0-0.907-0.287-1.4-0.86v0c-1.267-0.92-2.283-1.513-3.05-1.78v0c-1.533-0.613-3.027-0.92-4.48-0.92v0c-1.88 0-3.49 0.383-4.83 1.15v0c-1.607 0.92-2.41 2.183-2.41 3.79zM46.78-27.93l10.58 25.52c0.033 0.227 0.05 0.457 0.05 0.69 0 0.227-0.057 0.457-0.17 0.69-0.113 0.227-0.267 0.397-0.46 0.51v0c-0.38 0.347-0.8 0.52-1.26 0.52v0c-0.92 0-1.533-0.403-1.84-1.21v0l-2.82-6.95h-15.52l-2.75 6.95c-0.273 0.807-0.81 1.21-1.61 1.21-0.807 0-1.42-0.343-1.84-1.03v0c-0.113-0.233-0.17-0.447-0.17-0.64 0-0.187 0.057-0.433 0.17-0.74v0l10.4-25.52c0.767-1.913 1.647-3.007 2.64-3.28v0c0.273-0.033 0.62-0.09 1.04-0.17v0c0.767 0 1.34 0.173 1.72 0.52v0c0.613 0.46 1.227 1.437 1.84 2.93zM43.1-28.1l-6.66 16.89h13.39zM62.82-1.9v-27.53c0-0.76 0.42-1.353 1.26-1.78v0c0.233-0.113 0.483-0.17 0.75-0.17v0h9.37c5.053 0 8.463 1.34 10.23 4.02v0c0.607 1.113 0.91 2.523 0.91 4.23 0 1.707-0.553 3.153-1.66 4.34-1.113 1.187-2.703 1.99-4.77 2.41v0 0.17c1.993 0.347 3.41 1.093 4.25 2.24v0c0.653 0.96 1.067 2.247 1.24 3.86 0.173 1.607 0.317 2.87 0.43 3.79v0c0.113 1.34 0.227 2.813 0.34 4.42v0c0 0.653-0.2 1.133-0.6 1.44-0.4 0.307-0.85 0.46-1.35 0.46-0.5 0-0.94-0.143-1.32-0.43-0.387-0.287-0.617-0.717-0.69-1.29v0c-0.153-1.767-0.29-3.33-0.41-4.69-0.113-1.36-0.247-2.51-0.4-3.45-0.153-0.933-0.363-1.707-0.63-2.32-0.267-0.613-0.63-1.093-1.09-1.44v0c-0.767-0.573-2.28-0.9-4.54-0.98v0h-7.42v12.7c0 0.92-0.4 1.517-1.2 1.79v0c-0.233 0.073-0.53 0.11-0.89 0.11-0.367 0-0.76-0.153-1.18-0.46-0.42-0.307-0.63-0.787-0.63-1.44zM66.72-17.59h5.75c3.64 0 6.093-0.573 7.36-1.72v0c0.92-0.807 1.417-2.013 1.49-3.62v0c0-2.26-0.843-3.753-2.53-4.48v0c-0.92-0.46-1.84-0.72-2.76-0.78-0.913-0.06-1.64-0.09-2.18-0.09v0h-7.13zM93.51-30.11l9.59 26.78v0l9.37-26.67c0.42-0.92 1.033-1.38 1.84-1.38v0c0.46 0 0.843 0.117 1.15 0.35v0c0.46 0.38 0.69 0.837 0.69 1.37v0 0.23c0 0.08-0.04 0.197-0.12 0.35v0l-9.82 26.78c-0.46 1.533-1.553 2.3-3.28 2.3v0c-1.533 0-2.567-0.767-3.1-2.3v0l-10-26.67c-0.08-0.227-0.12-0.437-0.12-0.63 0-0.193 0.06-0.403 0.18-0.63 0.113-0.227 0.263-0.437 0.45-0.63v0c0.427-0.347 0.87-0.52 1.33-0.52v0c0.953 0 1.567 0.423 1.84 1.27z" fill="#ffffff" fill-rule="nonzero" stroke="none" stroke-width="1" stroke-linecap="butt" stroke-linejoin="miter" stroke-miterlimit="10" stroke-dasharray="" stroke-dashoffset="0" font-family="none" font-weight="none" font-size="none" text-anchor="none" style="mix-blend-mode: normal" data-fill-palette-color="primary" opacity="1"></path><path xmlns="http://www.w3.org/2000/svg" d="M7.13 11.62v0c0 0.807 0.267 1.563 0.8 2.27 0.54 0.713 1.23 1.297 2.07 1.75 0.84 0.46 1.797 0.863 2.87 1.21 1.073 0.347 2.203 0.71 3.39 1.09 1.193 0.387 2.363 0.81 3.51 1.27 1.147 0.46 2.143 1.033 2.99 1.72v0c1.84 1.493 2.76 3.523 2.76 6.09v0c0 1.227-0.287 2.387-0.86 3.48-0.58 1.093-1.387 2.003-2.42 2.73v0c-2.107 1.533-4.923 2.3-8.45 2.3v0c-3.333 0-6.263-0.843-8.79-2.53v0c-1.573-0.993-2.36-1.837-2.36-2.53v0c0-0.613 0.307-1.11 0.92-1.49v0c0.153-0.153 0.347-0.23 0.58-0.23 0.227 0 0.477 0.097 0.75 0.29 0.267 0.187 0.58 0.417 0.94 0.69 0.367 0.267 0.827 0.563 1.38 0.89 0.56 0.32 1.147 0.617 1.76 0.89v0c1.527 0.613 3.02 0.9 4.48 0.86 1.453-0.04 2.62-0.157 3.5-0.35 0.887-0.187 1.673-0.51 2.36-0.97v0c1.453-1 2.2-2.267 2.24-3.8v0c0-1.913-0.937-3.387-2.81-4.42v0c-0.847-0.46-1.797-0.873-2.85-1.24-1.053-0.36-2.163-0.713-3.33-1.06-1.173-0.347-2.333-0.767-3.48-1.26-1.147-0.5-2.163-1.097-3.05-1.79v0c-1.873-1.493-2.81-3.407-2.81-5.74v0c0-1.227 0.297-2.377 0.89-3.45 0.593-1.073 1.407-1.957 2.44-2.65v0c1.993-1.413 4.483-2.14 7.47-2.18v0c4.333 0 7.82 1.4 10.46 4.2v0c0.153 0.227 0.23 0.483 0.23 0.77 0 0.287-0.01 0.527-0.03 0.72-0.013 0.193-0.117 0.387-0.31 0.58v0c-0.267 0.34-0.623 0.51-1.07 0.51-0.44 0-0.907-0.287-1.4-0.86v0c-1.267-0.92-2.283-1.513-3.05-1.78v0c-1.533-0.613-3.027-0.92-4.48-0.92v0c-1.88 0-3.49 0.383-4.83 1.15v0c-1.607 0.92-2.41 2.183-2.41 3.79zM52.59 17.14v-11.55c0-0.88 0.44-1.457 1.32-1.73v0c0.227-0.033 0.513-0.07 0.86-0.11 0.347-0.04 0.73 0.093 1.15 0.4 0.42 0.307 0.63 0.787 0.63 1.44v0 27.58c0 0.58-0.173 1.023-0.52 1.33v0c-0.46 0.38-0.947 0.57-1.46 0.57-0.52 0-0.98-0.153-1.38-0.46-0.4-0.307-0.6-0.787-0.6-1.44v0-12.76h-16.5v12.76c0 0.58-0.153 1.023-0.46 1.33v0c-0.46 0.38-0.957 0.57-1.49 0.57-0.54 0-1-0.153-1.38-0.46-0.387-0.307-0.58-0.787-0.58-1.44v0-27.58c0-0.88 0.423-1.457 1.27-1.73v0c0.227-0.033 0.513-0.07 0.86-0.11 0.347-0.04 0.73 0.093 1.15 0.4 0.42 0.307 0.63 0.787 0.63 1.44v0 11.55zM65.29 33.17v-27.58c0-0.807 0.383-1.383 1.15-1.73v0c0.227-0.033 0.55-0.07 0.97-0.11 0.427-0.04 0.82 0.093 1.18 0.4 0.367 0.307 0.55 0.787 0.55 1.44v0 27.58c0 0.92-0.403 1.517-1.21 1.79v0c-0.227 0.073-0.533 0.11-0.92 0.11-0.38 0-0.763-0.153-1.15-0.46-0.38-0.307-0.57-0.787-0.57-1.44zM82.01 18.98v14.25c0 0.613-0.153 1.037-0.46 1.27v0c-0.46 0.38-0.977 0.57-1.55 0.57v0c-0.807 0-1.363-0.343-1.67-1.03v0c-0.073-0.233-0.11-0.503-0.11-0.81v0-27.64c0-0.653 0.19-1.133 0.57-1.44 0.387-0.307 0.753-0.46 1.1-0.46 0.34 0 0.627 0.04 0.86 0.12 0.227 0.073 0.437 0.207 0.63 0.4v0c0.42 0.347 0.63 0.807 0.63 1.38v0 12.01l13.22-13.22c0.42-0.46 0.87-0.69 1.35-0.69 0.48 0 0.893 0.153 1.24 0.46 0.34 0.307 0.51 0.68 0.51 1.12 0 0.44-0.113 0.833-0.34 1.18v0l-11.84 11.49 12.99 14.14c0.767 0.96 0.727 1.783-0.12 2.47v0c-0.46 0.347-0.92 0.52-1.38 0.52v0c-0.613 0-1.09-0.267-1.43-0.8v0zM109.02 11.62v0c0 0.807 0.27 1.563 0.81 2.27 0.533 0.713 1.223 1.297 2.07 1.75 0.84 0.46 1.797 0.863 2.87 1.21 1.073 0.347 2.203 0.71 3.39 1.09 1.187 0.387 2.357 0.81 3.51 1.27 1.147 0.46 2.143 1.033 2.99 1.72v0c1.833 1.493 2.75 3.523 2.75 6.09v0c0 1.227-0.287 2.387-0.86 3.48-0.573 1.093-1.377 2.003-2.41 2.73v0c-2.107 1.533-4.923 2.3-8.45 2.3v0c-3.333 0-6.263-0.843-8.79-2.53v0c-1.573-0.993-2.36-1.837-2.36-2.53v0c0-0.613 0.307-1.11 0.92-1.49v0c0.153-0.153 0.343-0.23 0.57-0.23 0.233 0 0.483 0.097 0.75 0.29 0.267 0.187 0.583 0.417 0.95 0.69 0.367 0.267 0.827 0.563 1.38 0.89 0.553 0.32 1.137 0.617 1.75 0.89v0c1.533 0.613 3.027 0.9 4.48 0.86 1.46-0.04 2.63-0.157 3.51-0.35 0.88-0.187 1.667-0.51 2.36-0.97v0c1.453-1 2.2-2.267 2.24-3.8v0c0-1.913-0.94-3.387-2.82-4.42v0c-0.84-0.46-1.787-0.873-2.84-1.24-1.053-0.36-2.167-0.713-3.34-1.06-1.167-0.347-2.323-0.767-3.47-1.26-1.153-0.5-2.17-1.097-3.05-1.79v0c-1.88-1.493-2.82-3.407-2.82-5.74v0c0-1.227 0.3-2.377 0.9-3.45 0.593-1.073 1.407-1.957 2.44-2.65v0c1.993-1.413 4.483-2.14 7.47-2.18v0c4.327 0 7.813 1.4 10.46 4.2v0c0.153 0.227 0.23 0.483 0.23 0.77 0 0.287-0.01 0.527-0.03 0.72-0.02 0.193-0.127 0.387-0.32 0.58v0c-0.267 0.34-0.62 0.51-1.06 0.51-0.44 0-0.91-0.287-1.41-0.86v0c-1.26-0.92-2.273-1.513-3.04-1.78v0c-1.533-0.613-3.03-0.92-4.49-0.92v0c-1.873 0-3.48 0.383-4.82 1.15v0c-1.613 0.92-2.42 2.183-2.42 3.79zM154.48 17.14v-11.55c0-0.88 0.44-1.457 1.32-1.73v0c0.233-0.033 0.523-0.07 0.87-0.11 0.34-0.04 0.723 0.093 1.15 0.4 0.42 0.307 0.63 0.787 0.63 1.44v0 27.58c0 0.58-0.173 1.023-0.52 1.33v0c-0.46 0.38-0.947 0.57-1.46 0.57-0.52 0-0.98-0.153-1.38-0.46-0.407-0.307-0.61-0.787-0.61-1.44v0-12.76h-16.49v12.76c0 0.58-0.153 1.023-0.46 1.33v0c-0.46 0.38-0.96 0.57-1.5 0.57-0.533 0-0.99-0.153-1.37-0.46-0.387-0.307-0.58-0.787-0.58-1.44v0-27.58c0-0.88 0.42-1.457 1.26-1.73v0c0.233-0.033 0.523-0.07 0.87-0.11 0.34-0.04 0.723 0.093 1.15 0.4 0.42 0.307 0.63 0.787 0.63 1.44v0 11.55zM181.44 7.14l10.57 25.52c0.04 0.227 0.06 0.457 0.06 0.69 0 0.227-0.057 0.457-0.17 0.69-0.12 0.227-0.273 0.397-0.46 0.51v0c-0.387 0.347-0.81 0.52-1.27 0.52v0c-0.92 0-1.533-0.403-1.84-1.21v0l-2.81-6.95h-15.52l-2.76 6.95c-0.267 0.807-0.803 1.21-1.61 1.21-0.8 0-1.413-0.343-1.84-1.03v0c-0.113-0.233-0.17-0.447-0.17-0.64 0-0.187 0.057-0.433 0.17-0.74v0l10.41-25.52c0.76-1.913 1.64-3.007 2.64-3.28v0c0.267-0.033 0.61-0.09 1.03-0.17v0c0.767 0 1.343 0.173 1.73 0.52v0c0.613 0.46 1.227 1.437 1.84 2.93zM177.76 6.97l-6.67 16.89h13.39z" fill="#ffffff" fill-rule="nonzero" stroke="none" stroke-width="1" stroke-linecap="butt" stroke-linejoin="miter" stroke-miterlimit="10" stroke-dasharray="" stroke-dashoffset="0" font-family="none" font-weight="none" font-size="none" text-anchor="none" style="mix-blend-mode: normal" data-fill-palette-color="primary" opacity="1"></path></g></svg></g></svg></g></svg></g></svg></g><g transform="matrix(1,0,0,1,0,0.3661199999999951)"><svg viewBox="0 0 185.01719566009785 146.44799999999998" height="146.44799999999998" width="185.01719566009785"><g><svg xmlns="http://www.w3.org/2000/svg" xmlns:xlink="http://www.w3.org/1999/xlink" version="1.1" x="0" y="0" viewBox="20.0001277923584 31.25452423095703 60.00029754638672 47.492469787597656" enable-background="new 0 0 100 100" xml:space="preserve" height="146.44799999999998" width="185.01719566009785" class="icon-icon-0" data-fill-palette-color="accent" id="icon-0"><path d="M79.297 49.314L52.402 31.516c-0.348-0.233-0.778-0.314-1.19-0.228l-29.788 6.291c-0.602 0.126-1.074 0.595-1.207 1.196l-0.179 0.806c-0.142 0.634 0.123 1.291 0.666 1.649l12.472 8.254-0.721 3.258c-0.363 1.648 0.86 3.642 3.725 5.537 5.44 3.6 14.722 5.484 20.748 4.211 2.849-0.601 4.456-1.802 4.784-3.28l0.621-2.813 8.047-1.699c1.001 1.415 1.653 3.131 1.818 5.32-0.817 0.423-1.383 1.265-1.383 2.25 0 0.825 0.399 1.551 1.011 2.016-0.692 3.527-1.614 10.01 0.226 12.883 0.542 0.846 1.309 1.386 2.219 1.559 0.072 0.014 0.144 0.021 0.215 0.021 0.535 0 1.012-0.379 1.116-0.925 0.117-0.617-0.288-1.213-0.904-1.331-0.2-0.037-0.462-0.134-0.729-0.55-0.649-1.014-0.801-3.015-0.681-5.273 0.561 1.752 1.424 3.328 2.753 4.203 0.528 0.349 1.232 0.2 1.576-0.325 0.345-0.524 0.199-1.229-0.325-1.575-1.788-1.178-2.543-5.216-2.704-8.49 0.779-0.435 1.312-1.257 1.312-2.211 0-1.001-0.583-1.857-1.423-2.271-0.15-2.332-0.756-4.231-1.692-5.808l5.792-1.224c0.602-0.126 1.074-0.595 1.207-1.196l0.179-0.806C80.104 50.33 79.839 49.673 79.297 49.314zM48.465 43.157c0.024-0.206 0.233-0.374 0.622-0.456 0.773-0.163 1.971 0.08 2.67 0.544 0.351 0.23 0.51 0.475 0.484 0.681l0 0-0.114 0.563h-0.001c-0.025 0.205-0.234 0.372-0.621 0.454-0.775 0.164-1.97-0.079-2.67-0.542-0.351-0.232-0.51-0.476-0.485-0.681L48.465 43.157z" fill="#ffffff" data-fill-palette-color="accent"></path></svg></g></svg></g></svg></g><defs></defs></svg><rect width="395.52" height="94.16624808002886" fill="none" stroke="none" visibility="hidden"></rect></g></svg></g></svg>